<svg width="16" height="16" viewBox="0 0 16 16" fill="none" xmlns="http://www.w3.org/2000/svg">
<path d="M15.5434 11.306L12.0434 9.80603C11.8939 9.74231 11.7277 9.72888 11.5699 9.76777C11.4121 9.80666 11.2712 9.89576 11.1684 10.0217L9.61844 11.9154C7.18586 10.7685 5.22819 8.8108 4.08125 6.37822L5.975 4.82823C6.10115 4.72562 6.19044 4.58472 6.22934 4.42684C6.26825 4.26895 6.25466 4.10269 6.19063 3.95323L4.69063 0.453233C4.62035 0.292111 4.49605 0.160561 4.33917 0.0812649C4.18229 0.00196921 4.00266 -0.0201013 3.83125 0.0188592L0.58125 0.768858C0.41599 0.80702 0.268545 0.90007 0.16298 1.03282C0.0574141 1.16557 -3.80691e-05 1.33019 1.89256e-08 1.49979C1.89256e-08 9.5154 6.49687 15.9998 14.5 15.9998C14.6697 15.9999 14.8343 15.9425 14.9672 15.8369C15.1 15.7313 15.1931 15.5838 15.2312 15.4185L15.9812 12.1685C16.02 11.9963 15.9974 11.8159 15.9175 11.6585C15.8376 11.5011 15.7053 11.3764 15.5434 11.306Z" fill="#327846"/>
</svg>
