<svg width="10" height="16" viewBox="0 0 10 16" fill="none" xmlns="http://www.w3.org/2000/svg">
<path d="M8.5 0H1.5C0.671875 0 0 0.671875 0 1.5V14.5C0 15.3281 0.671875 16 1.5 16H8.5C9.32812 16 10 15.3281 10 14.5V1.5C10 0.671875 9.32812 0 8.5 0ZM5 15C4.44688 15 4 14.5531 4 14C4 13.4469 4.44688 13 5 13C5.55312 13 6 13.4469 6 14C6 14.5531 5.55312 15 5 15ZM8.5 11.625C8.5 11.8313 8.33125 12 8.125 12H1.875C1.66875 12 1.5 11.8313 1.5 11.625V1.875C1.5 1.66875 1.66875 1.5 1.875 1.5H8.125C8.33125 1.5 8.5 1.66875 8.5 1.875V11.625Z" fill="white"/>
</svg>
