<svg width="7" height="8" viewBox="0 0 7 8" fill="none" xmlns="http://www.w3.org/2000/svg">
<path d="M5.75328 3.25H3.76176V1C3.76176 0.723906 3.56357 0.5 3.3192 0.5H2.87664C2.63226 0.5 2.43408 0.723906 2.43408 1V3.25H0.44256C0.198184 3.25 0 3.47391 0 3.75V4.25C0 4.52609 0.198184 4.75 0.44256 4.75H2.43408V7C2.43408 7.27609 2.63226 7.5 2.87664 7.5H3.3192C3.56357 7.5 3.76176 7.27609 3.76176 7V4.75H5.75328C5.99765 4.75 6.19583 4.52609 6.19583 4.25V3.75C6.19583 3.47391 5.99765 3.25 5.75328 3.25Z" fill="#327846"/>
</svg>
