<svg width="16" height="16" viewBox="0 0 16 16" fill="none" xmlns="http://www.w3.org/2000/svg">
<path d="M15.5434 11.3059L12.0434 9.80595C11.8939 9.74223 11.7277 9.7288 11.5699 9.76769C11.4121 9.80658 11.2712 9.89568 11.1684 10.0216L9.61844 11.9153C7.18586 10.7684 5.22819 8.81072 4.08125 6.37814L5.975 4.82815C6.10115 4.72554 6.19044 4.58464 6.22934 4.42676C6.26825 4.26887 6.25466 4.10261 6.19063 3.95315L4.69063 0.453153C4.62035 0.292031 4.49605 0.160481 4.33917 0.0811848C4.18229 0.00188911 4.00266 -0.0201814 3.83125 0.0187791L0.58125 0.768778C0.41599 0.80694 0.268545 0.89999 0.16298 1.03274C0.0574141 1.16549 -3.80691e-05 1.33011 1.89256e-08 1.49971C1.89256e-08 9.51532 6.49687 15.9997 14.5 15.9997C14.6697 15.9998 14.8343 15.9424 14.9672 15.8368C15.1 15.7312 15.1931 15.5837 15.2312 15.4184L15.9812 12.1684C16.02 11.9962 15.9974 11.8159 15.9175 11.6584C15.8376 11.501 15.7053 11.3764 15.5434 11.3059Z" fill="white"/>
</svg>
