<svg width="16" height="16" viewBox="0 0 16 16" fill="none" xmlns="http://www.w3.org/2000/svg">
<path d="M15.5434 11.306L12.0434 9.80601C11.8939 9.74229 11.7277 9.72886 11.5699 9.76775C11.4121 9.80664 11.2712 9.89574 11.1684 10.0216L9.61844 11.9154C7.18586 10.7684 5.22819 8.81078 4.08125 6.3782L5.975 4.82821C6.10115 4.72561 6.19044 4.5847 6.22934 4.42682C6.26825 4.26893 6.25466 4.10267 6.19063 3.95321L4.69063 0.453214C4.62035 0.292092 4.49605 0.160542 4.33917 0.0812459C4.18229 0.00195014 4.00266 -0.0201203 3.83125 0.0188401L0.58125 0.768839C0.41599 0.807001 0.268545 0.900051 0.16298 1.0328C0.0574141 1.16555 -3.80691e-05 1.33017 1.89256e-08 1.49977C1.89256e-08 9.51538 6.49687 15.9997 14.5 15.9997C14.6697 15.9999 14.8343 15.9424 14.9672 15.8369C15.1 15.7313 15.1931 15.5838 15.2312 15.4185L15.9812 12.1685C16.02 11.9963 15.9974 11.8159 15.9175 11.6585C15.8376 11.5011 15.7053 11.3764 15.5434 11.306Z" fill="black"/>
</svg>
